<mxfile host="app.diagrams.net" modified="2024-02-20T11:14:06.301Z" agent="Mozilla/5.0 (Windows NT 10.0; Win64; x64) AppleWebKit/537.36 (KHTML, like Gecko) Chrome/109.0.0.0 Safari/537.36" version="23.1.5" etag="36QwtYITILZ75GKvMJnI" type="device">
  <diagram id="C5RBs43oDa-KdzZeNtuy" name="Page-1">
    <mxGraphModel dx="791" dy="505" grid="1" gridSize="10" guides="1" tooltips="1" connect="1" arrows="1" fold="1" page="1" pageScale="1" pageWidth="827" pageHeight="1169" math="0" shadow="0">
      <root>
        <mxCell id="WIyWlLk6GJQsqaUBKTNV-0" />
        <mxCell id="WIyWlLk6GJQsqaUBKTNV-1" parent="WIyWlLk6GJQsqaUBKTNV-0" />
        <mxCell id="qSOaSrjmJ1dJkEjWt951-0" value="" style="edgeStyle=orthogonalEdgeStyle;rounded=0;orthogonalLoop=1;jettySize=auto;html=1;" edge="1" parent="WIyWlLk6GJQsqaUBKTNV-1" source="qSOaSrjmJ1dJkEjWt951-1" target="qSOaSrjmJ1dJkEjWt951-3">
          <mxGeometry relative="1" as="geometry" />
        </mxCell>
        <mxCell id="qSOaSrjmJ1dJkEjWt951-1" value="Start" style="ellipse;whiteSpace=wrap;html=1;" vertex="1" parent="WIyWlLk6GJQsqaUBKTNV-1">
          <mxGeometry x="220" y="70" width="120" height="50" as="geometry" />
        </mxCell>
        <mxCell id="qSOaSrjmJ1dJkEjWt951-32" style="edgeStyle=orthogonalEdgeStyle;rounded=0;orthogonalLoop=1;jettySize=auto;html=1;entryX=0.5;entryY=0;entryDx=0;entryDy=0;" edge="1" parent="WIyWlLk6GJQsqaUBKTNV-1" source="qSOaSrjmJ1dJkEjWt951-3" target="qSOaSrjmJ1dJkEjWt951-8">
          <mxGeometry relative="1" as="geometry" />
        </mxCell>
        <mxCell id="qSOaSrjmJ1dJkEjWt951-3" value="int[] arr&lt;br&gt;int i = 0&lt;br&gt;arr[i]" style="shape=parallelogram;perimeter=parallelogramPerimeter;whiteSpace=wrap;html=1;fixedSize=1;" vertex="1" parent="WIyWlLk6GJQsqaUBKTNV-1">
          <mxGeometry x="220" y="140" width="120" height="50" as="geometry" />
        </mxCell>
        <mxCell id="qSOaSrjmJ1dJkEjWt951-4" value="" style="edgeStyle=orthogonalEdgeStyle;rounded=0;orthogonalLoop=1;jettySize=auto;html=1;" edge="1" parent="WIyWlLk6GJQsqaUBKTNV-1" source="qSOaSrjmJ1dJkEjWt951-8" target="qSOaSrjmJ1dJkEjWt951-10">
          <mxGeometry relative="1" as="geometry" />
        </mxCell>
        <mxCell id="qSOaSrjmJ1dJkEjWt951-6" style="edgeStyle=orthogonalEdgeStyle;rounded=0;orthogonalLoop=1;jettySize=auto;html=1;exitX=0.5;exitY=1;exitDx=0;exitDy=0;" edge="1" parent="WIyWlLk6GJQsqaUBKTNV-1" source="qSOaSrjmJ1dJkEjWt951-8">
          <mxGeometry relative="1" as="geometry">
            <mxPoint x="280" y="320" as="targetPoint" />
          </mxGeometry>
        </mxCell>
        <mxCell id="qSOaSrjmJ1dJkEjWt951-7" value="Yes" style="edgeLabel;html=1;align=center;verticalAlign=middle;resizable=0;points=[];" vertex="1" connectable="0" parent="qSOaSrjmJ1dJkEjWt951-6">
          <mxGeometry x="-0.25" y="1" relative="1" as="geometry">
            <mxPoint as="offset" />
          </mxGeometry>
        </mxCell>
        <mxCell id="qSOaSrjmJ1dJkEjWt951-24" value="" style="edgeStyle=orthogonalEdgeStyle;rounded=0;orthogonalLoop=1;jettySize=auto;html=1;" edge="1" parent="WIyWlLk6GJQsqaUBKTNV-1" source="qSOaSrjmJ1dJkEjWt951-8" target="qSOaSrjmJ1dJkEjWt951-10">
          <mxGeometry relative="1" as="geometry" />
        </mxCell>
        <mxCell id="qSOaSrjmJ1dJkEjWt951-25" value="No" style="edgeLabel;html=1;align=center;verticalAlign=middle;resizable=0;points=[];" vertex="1" connectable="0" parent="qSOaSrjmJ1dJkEjWt951-24">
          <mxGeometry x="-0.1371" relative="1" as="geometry">
            <mxPoint as="offset" />
          </mxGeometry>
        </mxCell>
        <mxCell id="qSOaSrjmJ1dJkEjWt951-8" value="i &amp;lt; arr.Length" style="rhombus;whiteSpace=wrap;html=1;" vertex="1" parent="WIyWlLk6GJQsqaUBKTNV-1">
          <mxGeometry x="200" y="220" width="160" height="70" as="geometry" />
        </mxCell>
        <mxCell id="qSOaSrjmJ1dJkEjWt951-9" style="edgeStyle=orthogonalEdgeStyle;rounded=0;orthogonalLoop=1;jettySize=auto;html=1;exitX=1;exitY=0.5;exitDx=0;exitDy=0;" edge="1" parent="WIyWlLk6GJQsqaUBKTNV-1" source="qSOaSrjmJ1dJkEjWt951-10" target="qSOaSrjmJ1dJkEjWt951-20">
          <mxGeometry relative="1" as="geometry" />
        </mxCell>
        <mxCell id="qSOaSrjmJ1dJkEjWt951-10" value="print new arr" style="shape=document;whiteSpace=wrap;html=1;boundedLbl=1;" vertex="1" parent="WIyWlLk6GJQsqaUBKTNV-1">
          <mxGeometry x="410" y="220" width="120" height="70" as="geometry" />
        </mxCell>
        <mxCell id="qSOaSrjmJ1dJkEjWt951-11" value="" style="edgeStyle=orthogonalEdgeStyle;rounded=0;orthogonalLoop=1;jettySize=auto;html=1;" edge="1" parent="WIyWlLk6GJQsqaUBKTNV-1" source="qSOaSrjmJ1dJkEjWt951-12" target="qSOaSrjmJ1dJkEjWt951-14">
          <mxGeometry relative="1" as="geometry" />
        </mxCell>
        <mxCell id="qSOaSrjmJ1dJkEjWt951-12" value="кладем arr[i] в новый массив&lt;br&gt;&amp;nbsp;new arr[]" style="whiteSpace=wrap;html=1;" vertex="1" parent="WIyWlLk6GJQsqaUBKTNV-1">
          <mxGeometry x="210" y="420" width="140" height="60" as="geometry" />
        </mxCell>
        <mxCell id="qSOaSrjmJ1dJkEjWt951-13" style="edgeStyle=orthogonalEdgeStyle;rounded=0;orthogonalLoop=1;jettySize=auto;html=1;exitX=0.5;exitY=1;exitDx=0;exitDy=0;entryX=0;entryY=0.5;entryDx=0;entryDy=0;" edge="1" parent="WIyWlLk6GJQsqaUBKTNV-1" source="qSOaSrjmJ1dJkEjWt951-14" target="qSOaSrjmJ1dJkEjWt951-8">
          <mxGeometry relative="1" as="geometry">
            <Array as="points">
              <mxPoint x="280" y="580" />
              <mxPoint x="160" y="580" />
              <mxPoint x="160" y="255" />
            </Array>
          </mxGeometry>
        </mxCell>
        <mxCell id="qSOaSrjmJ1dJkEjWt951-14" value="i = i + 1" style="whiteSpace=wrap;html=1;" vertex="1" parent="WIyWlLk6GJQsqaUBKTNV-1">
          <mxGeometry x="210" y="505" width="140" height="60" as="geometry" />
        </mxCell>
        <mxCell id="qSOaSrjmJ1dJkEjWt951-20" value="End" style="ellipse;whiteSpace=wrap;html=1;" vertex="1" parent="WIyWlLk6GJQsqaUBKTNV-1">
          <mxGeometry x="570" y="230" width="120" height="50" as="geometry" />
        </mxCell>
        <mxCell id="qSOaSrjmJ1dJkEjWt951-27" style="edgeStyle=orthogonalEdgeStyle;rounded=0;orthogonalLoop=1;jettySize=auto;html=1;exitX=0.5;exitY=1;exitDx=0;exitDy=0;entryX=0.5;entryY=0;entryDx=0;entryDy=0;" edge="1" parent="WIyWlLk6GJQsqaUBKTNV-1" source="qSOaSrjmJ1dJkEjWt951-26" target="qSOaSrjmJ1dJkEjWt951-12">
          <mxGeometry relative="1" as="geometry" />
        </mxCell>
        <mxCell id="qSOaSrjmJ1dJkEjWt951-29" value="Yes" style="edgeLabel;html=1;align=center;verticalAlign=middle;resizable=0;points=[];" vertex="1" connectable="0" parent="qSOaSrjmJ1dJkEjWt951-27">
          <mxGeometry x="-0.1429" relative="1" as="geometry">
            <mxPoint as="offset" />
          </mxGeometry>
        </mxCell>
        <mxCell id="qSOaSrjmJ1dJkEjWt951-30" style="edgeStyle=orthogonalEdgeStyle;rounded=0;orthogonalLoop=1;jettySize=auto;html=1;exitX=1;exitY=0.5;exitDx=0;exitDy=0;entryX=1;entryY=0.5;entryDx=0;entryDy=0;" edge="1" parent="WIyWlLk6GJQsqaUBKTNV-1" source="qSOaSrjmJ1dJkEjWt951-26" target="qSOaSrjmJ1dJkEjWt951-14">
          <mxGeometry relative="1" as="geometry">
            <Array as="points">
              <mxPoint x="390" y="355" />
              <mxPoint x="390" y="535" />
            </Array>
          </mxGeometry>
        </mxCell>
        <mxCell id="qSOaSrjmJ1dJkEjWt951-31" value="No" style="edgeLabel;html=1;align=center;verticalAlign=middle;resizable=0;points=[];" vertex="1" connectable="0" parent="qSOaSrjmJ1dJkEjWt951-30">
          <mxGeometry x="-0.8731" y="3" relative="1" as="geometry">
            <mxPoint as="offset" />
          </mxGeometry>
        </mxCell>
        <mxCell id="qSOaSrjmJ1dJkEjWt951-26" value="кол-во символов &lt;br&gt;arr[i] &amp;lt;= 3" style="rhombus;whiteSpace=wrap;html=1;" vertex="1" parent="WIyWlLk6GJQsqaUBKTNV-1">
          <mxGeometry x="200" y="320" width="160" height="70" as="geometry" />
        </mxCell>
      </root>
    </mxGraphModel>
  </diagram>
</mxfile>
